<?xml version="1.0" encoding="utf-8"?>
<!-- Svg Vector Icons : http://www.onlinewebfonts.com/icon -->
<!DOCTYPE svg PUBLIC "-//W3C//DTD SVG 1.1//EN" "http://www.w3.org/Graphics/SVG/1.1/DTD/svg11.dtd">
<svg version="1.1" xmlns="http://www.w3.org/2000/svg" xmlns:xlink="http://www.w3.org/1999/xlink" x="0px" y="0px" viewBox="0 0 256 256" enable-background="new 0 0 256 256" xml:space="preserve">
<metadata> Svg Vector Icons : http://www.onlinewebfonts.com/icon </metadata>
<g><g><g><path fill="#000000" d="M48.5,45.6c-8.1,2.4-14.9,6.1-21.1,11.8c-6.9,6.4-10.8,12.8-14.3,22.9c-2.3,6.7-2.6,9.3-3,22.6c-0.3,11.6,0,17,1.2,23.5c4.9,26,18.1,52.2,35.5,70c6.1,6.3,6.1,6.3,5.6,10.7c-0.5,3.9-0.4,4.4,1.4,4.4c1,0,3.3-1.6,5.2-3.8c2.4-2.8,3.9-3.8,5.9-3.8c7.1,0,16.6-5.1,20.5-11c4.6-6.9,4.8-18.5,0.5-28.5l-2-4.6l3.4-5.9c4.3-7.7,12-18.9,13.4-19.3c0.7-0.2,1.2,1.7,1.6,5.1c1.2,13.9,17.5,52.2,22.9,54.3c4.2,1.6,10.1-9.1,14.4-26.2c3.7-14.4,5-25,4.5-37c-0.5-12.1-1.8-15.7-5.9-15.7c-5.3,0-5.6,2.4-5.4,30.7c0.3,25-0.5,33.3-3,32.4c-1.6-0.5-6.7-13.9-10-26c-6.1-22.5-7.5-26.3-10.7-29.9c-1.7-1.9-3.4-4.4-3.8-5.5c-1.2-3.9-4.3-6.9-7.3-6.9c-4.4,0-11.1-4.8-11.1-7.9c0-0.3,2.4-0.6,5.2-0.6c3.9,0,5.6-0.5,7-1.8c1.6-1.6,3.2-1.8,13.8-1.6c9.6,0.1,13.1-0.3,16.5-1.6c11.8-4.5,13.2-14.9,3.6-28.3c-4.3-6.1-7.4-8-14.3-8.7c-4.1-0.5-5.6-1.2-9.4-4.7c-4.5-4.2-13.6-9-19.2-10.2c-2.9-0.6-3.1-0.5-3.1,2.3c0,1.5,0.5,3.9,0.9,5.4c0.6,1.4,0.8,2.7,0.6,3c-0.3,0.3-2.7-1.1-5.5-3C72.7,45.3,59.3,42.6,48.5,45.6z M111,62.5c3.3,1.4,6.1,5.5,6.1,9c0,3.6-2.8,7.6-6.3,9c-6.9,2.9-13.4-1.4-13.4-8.9c0.1-4.9,1.2-7,5.3-9C106,60.9,106.9,60.8,111,62.5z M68.7,120.4c0.8,2.6,4.2,5.6,6.3,5.6c0.9,0,3.5-1.3,5.6-2.8c2.2-1.6,5.1-2.8,6.6-2.8c2.3,0,10.2,3.9,10.2,5.2c0,0.3-1.4,2.6-3.1,5.4c-1.8,2.7-5.4,9-8,13.9c-6.8,12.4-5.9,11.6-9.5,9.8c-4.5-2.3-12.2-1.4-16.5,1.9c-4.1,3.1-6,6.5-7.1,13.1c-1.2,6.3,0,10.3,4.2,14.8l3.4,3.5l-1.7,3c-0.9,1.6-2.4,2.8-3.1,2.7c-2.2-0.4-10.8-14.1-12.8-20.2c-3.8-11.5-1.8-23.2,5.7-34.5c3.5-5.4,17.1-20.3,18.3-20.3C67.7,118.5,68.4,119.4,68.7,120.4z M74.2,161.4c2.4,0.8,1.9,2-2.8,6.5c-2.9,2.8-4.1,4.7-3.8,5.7c0.7,1.6-2.7,7.9-4.2,7.9c-0.4,0-1.4-1.2-2.3-2.8c-3.9-7.6,0.7-17.9,8.1-17.9C71.2,160.8,73.4,161.1,74.2,161.4z M82.2,174.4c1.3,6,0.5,10.3-3,14.9c-2.5,3.3-10.4,8-11.6,6.9c-0.8-0.8,2.3-8.2,3.5-8.2c0.5,0,2.3-1.3,4.1-2.9c4-3.5,5.9-8.9,4.3-12c-1.1-2-0.8-3.9,0.8-3.9C80.7,169.3,81.6,171.6,82.2,174.4z"/><path fill="#000000" d="M106.4,70.2c-2.2,2.2-1.9,4.8,0.8,6.6c2.2,1.4,2.5,1.4,4.7,0c1.3-0.8,2.4-2.4,2.4-3.4c0-2.3-2.4-4.7-4.7-4.7C108.6,68.7,107.1,69.3,106.4,70.2z"/><path fill="#000000" d="M167.4,154.9v8.3l-8.2,0.3l-8.3,0.3v4.6v4.6l8.3,0.3l8.2,0.3l0.1,8l0.2,8l4.3,0.3l4.3,0.3v-8.5V173h8.5h8.5v-4.7v-4.7h-8.5h-8.5v-8.5v-8.5h-4.4h-4.5V154.9z"/><path fill="#000000" d="M219.6,155.2v8.5h-8.5h-8.5v4.7v4.7h8.5h8.5v8.5v8.5h4.7h4.7v-8.5v-8.4l8.3-0.3l8.2-0.3l0.3-4.5l0.3-4.4h-8.5H229v-8.5v-8.5h-4.7h-4.7V155.2z"/></g></g></g>
</svg>