<?xml version="1.0" standalone="no"?>
<!DOCTYPE svg PUBLIC "-//W3C//DTD SVG 20010904//EN"
 "http://www.w3.org/TR/2001/REC-SVG-20010904/DTD/svg10.dtd">
<svg version="1.0" xmlns="http://www.w3.org/2000/svg"
 width="300.000000pt" height="300.000000pt" viewBox="0 0 300.000000 300.000000"
 preserveAspectRatio="xMidYMid meet">
<metadata>
Created by potrace 1.10, written by Peter Selinger 2001-2011
</metadata>
<g transform="translate(0.000000,300.000000) scale(0.100000,-0.100000)"
fill="#000000" stroke="none">
<path d="M770 2694 c-152 -72 -160 -77 -160 -97 0 -24 70 -431 75 -435 10 -10
25 16 69 122 l49 115 56 -21 c31 -11 63 -29 71 -39 8 -10 42 -36 76 -57 53
-35 78 -63 204 -238 78 -110 151 -207 162 -216 15 -14 39 -18 97 -19 42 0 94
-3 115 -7 37 -7 41 -11 63 -66 12 -32 43 -151 68 -265 40 -182 69 -298 145
-581 11 -41 49 -185 85 -319 62 -234 70 -259 79 -250 2 2 -4 164 -15 359 -11
195 -18 369 -17 385 3 26 16 9 112 -145 60 -96 115 -182 123 -190 13 -13 14
-12 9 10 -3 14 -31 201 -61 415 -31 215 -58 396 -60 403 -2 6 -1 12 4 12 5 0
96 -55 202 -123 247 -157 269 -170 269 -162 0 6 -148 191 -454 570 -71 88
-235 292 -364 453 -130 162 -245 297 -256 302 -23 8 -369 41 -401 38 -31 -3
-239 53 -251 69 -14 16 -6 18 -94 -23z"/>
</g>
</svg>
