<?xml version="1.0" encoding="utf-8"?>
<!-- Svg Vector Icons : http://www.onlinewebfonts.com/icon -->
<!DOCTYPE svg PUBLIC "-//W3C//DTD SVG 1.1//EN" "http://www.w3.org/Graphics/SVG/1.1/DTD/svg11.dtd">
<svg version="1.1" xmlns="http://www.w3.org/2000/svg" xmlns:xlink="http://www.w3.org/1999/xlink" x="0px" y="0px" viewBox="0 0 256 256" enable-background="new 0 0 256 256" xml:space="preserve">
<metadata> Svg Vector Icons : http://www.onlinewebfonts.com/icon </metadata>
<g><g><path fill="#000000" d="M180.5,4.7c-4.3,0.7-8.6,1.4-12.8,2.1c0.2,0.1,0.4,0.2,0.6,0.3c4.8,3.6,10.7,5.8,15.5,9.2c13.7,10,28.2,28,32.2,47.1c1.8,8.4-1.4,21.3-2.7,28.6c-2.2,11.9,4.2,21.9,2.1,34.6c-0.9,5.4-6.1,18-4.5,19.4c0-0.2,0-0.4,0-0.6c3.7-3.7,5.6-9.6,8.4-14.3c11-18.9,18.9-41,24.4-65.3c2.1-9.2,3.9-24.9,0.3-33.7c-1.9-4.5-6.5-8.5-10.1-11.3C220,9.9,206,4.6,180.5,4.7z"/><path fill="#000000" d="M131.9,7.4c-2.3,0.2-4.6,0.4-6.8,0.6c-4.3,1.2-8.6,2.4-12.8,3.6c-19.3,8.3-30.7,31.9-31.9,58.1c4.4-2.2,9.2-4.6,14.3-6c26.1-7.1,29.6,9.6,33.1,29.5c1.3,7.6,1.5,18.3-0.3,25.6c-1.6,6.2-4,11.7-6.3,17c-2,5.7-4,11.3-6,17c0.1,0,0.2,0,0.3,0c2.5-0.7,5,0.2,6.8,0.9c10.7,4.2,9.5,14.7,9.5,29.2c0,26.2-3.2,61.8,17.3,67.7c6.1,1.7,13.4-0.3,18.2-1.8c26-8,20.9-39,25.9-67c1.3-7.3-0.3-17.2,3-22.6c2.2-3.8,5.7-4.4,9.2-6.8c-10.9-16.9-22.9-35-29.2-56.3c-7.5-25.6,5.8-35.9,31-34.3C195.8,31.9,172.7,7.6,131.9,7.4z"/><path fill="#000000" d="M55.3,8c-4.4,0.5-8.8,1-13.1,1.5C29.8,12.6,19.8,19.7,15,30.4c-14.6,33.2,6.1,95,17.3,121c3.8,8.8,11.1,26.1,20.6,28.3c4.9,1.2,7.8-2.5,9.8-4.5c7.3-8.4,14.7-16.7,22.1-25c-6.9-8.1-16.3-18-13.4-35.5c0.5-5.1,1-10.1,1.5-15.2c-0.2-9.2-0.4-18.5-0.6-27.7c4.4-28.7,7.6-38.4,21.8-56.9c0-0.1,0-0.2,0-0.3C81.9,12.5,70.6,8.2,55.3,8z"/><path fill="#000000" d="M220.1,163.3c-4.3-0.8-7.2-3.3-11-3.9c-5.1,2.7-7.4,3.2-7.1,11.3c12.7,6.2,36.9-2.4,42.6-9.2C237.2,162.3,228.6,164.9,220.1,163.3z"/><path fill="#000000" d="M116.7,160.3c-4.1,4.4-8.2,8.8-12.2,13.1c-5.3,3.4-13.9,4.6-20.6,6.3c0.1,0.2,0.2,0.4,0.3,0.6c14,4.9,25.6,3.8,35.5-4.5C124.6,171.7,126.9,160.7,116.7,160.3z"/><path fill="#000000" d="M205.5,93.3c0.9-8,1.8-15.9,2.7-23.9c-9.9-0.4-20.1-0.8-24.2,5.4c-2.9,4.4-1.9,13.9-0.3,19.1c4,12.8,10.2,24,16.4,34.6c1.4,2.9,2.8,5.8,4.2,8.7c0.2-0.1,0.4-0.2,0.6-0.3c1.2-6.4,4-13.3,2.7-21.8C206.9,107.7,206.2,100.5,205.5,93.3z M193.7,83.2c-3.5-1-4.8-1.7-6.8-3.9c0.2-1.7,0.5-1.7,1.2-2.7c1.6-0.6,2.6-1.8,6.8-2.1c3,0.5,4,1,5.4,3C198.4,80.9,197,81.1,193.7,83.2z"/><path fill="#000000" d="M113.1,72.4c-2.6-1.9-6.7-2.1-11.3-2.1c-3.8,1-7.5,2-11.3,3C87,75.1,83.5,77,80,78.9c0.2,7.4,0.4,14.9,0.6,22.3c-1.1,7.2-2.8,15.9-1.5,23.2c2.6,14.2,12.1,26.4,28.6,26.6c1.5-4.7,3-9.3,4.5-14c2.5-6.1,5.7-12,7.4-19.1C122.8,105.7,120.3,77.6,113.1,72.4z M112.9,82.4c-2.8,6.5-13.7,3.8-14-3.3c0.1-0.2,0.2-0.4,0.3-0.6c0.9-0.5,1.8-1,2.7-1.5c5.6-0.2,8.4,0.8,11.3,3C113.1,80.8,113,81.6,112.9,82.4z"/></g></g>
</svg>